# Blender v2.79 (sub 0) OBJ File: ''
# www.blender.org
mtllib m_ll_building_03.mtl
o lalka.m_ll_building_02.dmx.mesh_0
v 0.981383 38.653530 -23.191816
v 0.981386 -0.161385 7.302909
v 0.981385 38.653526 7.302916
v 0.981386 -0.161385 7.302909
v 0.981383 38.653530 -23.191816
v 0.981385 -0.161379 -23.191824
v 16.665478 29.827330 -21.707485
v 9.427057 -0.161380 -21.707487
v 9.236814 29.827330 -21.707485
v -0.000001 38.653522 14.746156
v 0.000001 -0.161388 23.191814
v -0.000001 38.653522 23.191822
v 9.427057 -0.161380 -21.707487
v 16.665478 29.827330 -21.707485
v 16.665480 -0.161378 -21.707491
v 0.000001 -0.161388 23.191814
v -0.000001 38.653522 14.746156
v 0.000001 -0.161386 14.746149
v 0.981384 -0.161380 -21.707491
v 9.427054 33.647537 -21.707478
v 9.427057 -0.161380 -21.707487
v -0.000001 38.653526 8.062120
v 0.000001 -0.161386 14.746149
v -0.000001 38.653522 14.746156
v 9.427054 33.647537 -21.707478
v 0.981384 -0.161380 -21.707491
v 0.981385 33.647537 -21.707478
v 0.000001 -0.161386 14.746149
v -0.000001 38.653526 8.062120
v 0.000000 -0.161385 8.062114
v 17.859148 -0.161385 22.026262
v 0.381818 38.653526 22.026270
v 0.381817 -0.161387 22.026262
v 0.981385 38.653526 7.302916
v 0.000000 -0.161385 8.062114
v -0.000001 38.653526 8.062120
v 0.381818 38.653526 22.026270
v 17.859148 -0.161385 22.026262
v 17.859148 38.653530 22.026270
v 0.000000 -0.161385 8.062114
v 0.981385 38.653526 7.302916
v 0.981386 -0.161385 7.302909
vt 0.763078 -1.379425
vt 0.913557 -1.569350
vt 0.912629 -1.379425
vt 0.913557 -1.569350
vt 0.763078 -1.379425
vt 0.762681 -1.569350
vt 0.763078 -1.379425
vt 0.798506 -1.529230
vt 0.799509 -1.379425
vt 0.949383 -1.379425
vt 0.991860 -1.569350
vt 0.990858 -1.379425
vt 0.798506 -1.529230
vt 0.763078 -1.379425
vt 0.762763 -1.530134
vt 0.991860 -1.569350
vt 0.949383 -1.379425
vt 0.950131 -1.569350
vt 0.991742 -1.546986
vt 0.949383 -1.379425
vt 0.950047 -1.548041
vt 0.916559 -1.379425
vt 0.950131 -1.569350
vt 0.949383 -1.379425
vt 0.949383 -1.379425
vt 0.991742 -1.546986
vt 0.990858 -1.379425
vt 0.950131 -1.569350
vt 0.916559 -1.379425
vt 0.917105 -1.569350
vt 0.762681 -1.569350
vt 0.848755 -1.379425
vt 0.849152 -1.569350
vt 0.912629 -1.379425
vt 0.917105 -1.569350
vt 0.916559 -1.379425
vt 0.848755 -1.379425
vt 0.762681 -1.569350
vt 0.763043 -1.379425
vt 0.917105 -1.569350
vt 0.912629 -1.379425
vt 0.913557 -1.569350
vn -1.0000 -0.0000 0.0000
vn 0.0000 0.0000 -1.0000
vn 0.0000 -0.0000 1.0000
vn -0.6119 0.0000 -0.7909
usemtl None
s 1
f 1/1/1 2/2/1 3/3/1
f 4/4/1 5/5/1 6/6/1
f 7/7/2 8/8/2 9/9/2
f 10/10/1 11/11/1 12/12/1
f 13/13/2 14/14/2 15/15/2
f 16/16/1 17/17/1 18/18/1
f 19/19/2 20/20/2 21/21/2
f 22/22/1 23/23/1 24/24/1
f 25/25/2 26/26/2 27/27/2
f 28/28/1 29/29/1 30/30/1
f 31/31/3 32/32/3 33/33/3
f 34/34/4 35/35/4 36/36/4
f 37/37/3 38/38/3 39/39/3
f 40/40/4 41/41/4 42/42/4
